<?xml version="1.0" encoding="UTF-8" standalone="no"?>
<!-- Created with Inkscape (http://www.inkscape.org/) -->

<svg
   version="1.1"
   id="svg1388"
   width="773.05127"
   height="210.00095"
   viewBox="0 0 773.05126 210.00094"
   sodipodi:docname="logo-bw.svg"
   inkscape:version="1.1 (c68e22c387, 2021-05-23)"
   xmlns:inkscape="http://www.inkscape.org/namespaces/inkscape"
   xmlns:sodipodi="http://sodipodi.sourceforge.net/DTD/sodipodi-0.dtd"
   xmlns="http://www.w3.org/2000/svg"
   xmlns:svg="http://www.w3.org/2000/svg">
  <sodipodi:namedview
     id="namedview11"
     pagecolor="#ffffff"
     bordercolor="#666666"
     borderopacity="1.0"
     inkscape:pageshadow="2"
     inkscape:pageopacity="0.0"
     inkscape:pagecheckerboard="0"
     showgrid="false"
     inkscape:zoom="1.4037886"
     inkscape:cx="261.43538"
     inkscape:cy="191.98048"
     inkscape:window-width="1920"
     inkscape:window-height="1057"
     inkscape:window-x="-8"
     inkscape:window-y="-8"
     inkscape:window-maximized="1"
     inkscape:current-layer="layer1"
     fit-margin-top="0"
     fit-margin-left="0"
     fit-margin-right="0"
     fit-margin-bottom="0" />
  <defs
     id="defs1392" />
  <g
     inkscape:groupmode="layer"
     id="layer2"
     inkscape:label="Layer 2"
     transform="translate(-10.4676,1.48495)" />
  <g
     inkscape:groupmode="layer"
     id="layer1"
     inkscape:label="Layer 1"
     transform="translate(-10.4676,1.48495)">
    <path
       style="fill:#fdfdfd"
       d="m 418.9406,154.82229 c 0,-1.03942 2.925,-8.25496 6.5,-16.03453 3.575,-7.77957 6.5,-14.34426 6.5,-14.58821 0,-0.24394 -3.40206,-8.2159 -7.56014,-17.71547 -4.15808,-9.499575 -8.27642,-18.959445 -9.15187,-21.021945 l -1.59174,-3.75 h -6.83035 -6.83034 l -0.26778,24.250005 -0.26778,24.25 h -8 -8 l -0.26778,-24.25 -0.26778,-24.250005 h -5.46444 -5.46444 l -0.26778,24.250005 -0.26778,24.25 h -8 -8 v -32.000005 -32 l 13.75,-0.27822 13.75,-0.27822 v -6.0039 c 0,-7.08021 1.91997,-12.219 6.22859,-16.67082 4.12884,-4.26606 8.66272,-5.68771 17.85022,-5.59715 9.98405,0.0984 12.31937,1.3352 11.66331,6.17689 -0.27213,2.00828 -1.22851,5.40123 -2.12529,7.5399 l -1.6305,3.88848 -5.07593,-0.60117 c -4.47233,-0.52968 -5.36338,-0.31372 -7.49317,1.81607 -1.63976,1.63976 -2.41723,3.54824 -2.41723,5.93366 v 3.51643 l 13.24188,0.27902 13.24189,0.27903 7.05077,16.83685 c 3.87792,9.26027 7.48157,16.91027 8.00811,16.999995 0.52654,0.0897 4.05517,-7.599345 7.8414,-17.086845 l 6.88405,-17.25 h 8.86595 c 8.76706,0 8.86595,0.0276 8.86595,2.47562 0,2.2528 -5.516,15.53087 -23.48148,56.524385 -3.49506,7.975 -8.01993,18.4375 -10.05526,23.25 l -3.7006,8.75 h -8.88133 c -8.04212,0 -8.88133,-0.17858 -8.88133,-1.88985 z m -232.5,-23.27348 c -9.07344,-3.36538 -17.48579,-12.94563 -19.57843,-22.29655 -1.17712,-5.25992 -0.80601,-20.812095 0.60349,-25.290125 0.68554,-2.17799 0.49643,-2.25 -5.90843,-2.25 h -6.61663 v 14.80887 c 0,17.656825 0.41947,18.698435 7.38494,18.337875 5.11496,-0.26477 5.32059,-0.0129 7.91797,9.69674 1.62056,6.05804 -0.0731,7.15652 -11.03388,7.15652 -9.90557,0 -14.45215,-1.89256 -18.26903,-7.60468 -2.41771,-3.6182 -2.51016,-4.3746 -2.80857,-22.97918 l -0.30856,-19.237835 -5.55701,-0.33916 c -5.33168,-0.3254 -5.66664,-0.19724 -8.26116,3.16085 -5.59414,7.24051 -9.07012,13.18285 -8.37758,14.32181 0.39401,0.64801 4.67559,6.746765 9.51463,13.552795 6.2186,8.74637 8.79825,13.22868 8.79825,15.28753 v 2.91292 l -9.2352,-0.28752 -9.2352,-0.28753 -5.24257,-7.99259 c -2.88342,-4.39593 -5.6592,-8.13147 -6.16842,-8.30121 -0.50921,-0.16973 -3.43783,3.54512 -6.508042,8.25524 l -5.582194,8.56385 -35.764182,-0.26264 -35.76418,-0.26265 v -46.000005 -46 l 28.25,-0.26557 28.24999,-0.26558 v 8.51558 8.51557 h -19.49999 -19.5 v 11 11 h 17.54206 17.54206 l -0.29207,7.75 -0.29206,7.75 -17.24999,0.27361 -17.25,0.27362 v 10.976385 10.97639 h 19.38336 c 19.14359,0 19.3905,0.0273 19.96004,2.2052 0.63837,2.44115 -0.18462,3.36744 10.94486,-12.31857 l 4.6923,-6.613385 -2.81542,-3.88662 c -10.33978,-14.27387 -16.16515,-23.60107 -16.16515,-25.88257 v -2.57911 l 9.23468,0.28752 9.23468,0.28753 5.444506,8.22373 c 4.047842,6.11414 5.760262,7.96168 6.675412,7.20217 0.677,-0.56186 3.40887,-4.3587 6.07082,-8.43742 l 4.8399,-7.41585 11,-0.28632 11,-0.28631 0.28893,-8.75 0.28894,-8.75 h 8.46106 8.46107 v 9 9 h 7 7 v 6 c 0,3.3 0.28077,6 0.62393,6 0.34316,0 2.37323,-1.98731 4.51126,-4.41625 5.44921,-6.19063 11.15442,-8.69836 21.21744,-9.32617 15.19725,-0.94813 25.86784,4.60623 31.1918,16.23625 l 2.2917,5.00617 0.0819,-9.75 0.082,-9.75 h 7.91667 c 5.27495,0 8.05033,0.40101 8.31725,1.20176 0.28658,0.85973 1.85723,0.57513 5.51871,-1 9.78632,-4.20996 23.90893,-2.24138 30.1555,4.20345 1.84447,1.90301 4.14833,5.80765 5.11969,8.67698 l 1.76612,5.21696 1.68785,-3.26393 c 2.52873,-4.89003 9.41488,-11.94186 13.89136,-14.22559 2.49957,-1.27518 6.81113,-2.21701 11.67549,-2.55042 7.30203,-0.50049 10.34222,0.041 18.20136,3.242 1.62102,0.66023 1.75,-0.40368 1.75,-14.43466 v -15.14743 l 8.25,0.29044 c 8.1984,0.28863 8.252,0.30784 8.56945,3.07185 l 0.31946,2.7814 2.75944,-2.95399 c 7.95522,-8.51609 21.75228,-1.72095 19.61692,9.66146 -1.01806,5.42676 -4.78421,8.22972 -11.0577,8.22972 -4.75455,0 -5.54238,-0.33257 -8.34235,-3.52155 l -3.09197,-3.52156 -0.26162,39.27156 -0.26163,39.271555 -7.3425,0.29568 c -4.0955,0.16492 -7.89867,-0.16591 -8.60017,-0.7481 -0.89467,-0.74251 -2.23897,-0.53922 -4.6575,0.70432 -4.94655,2.54338 -21.93791,2.47487 -27.13629,-0.10942 -4.34872,-2.16189 -8.89903,-6.51642 -12.62563,-12.08243 l -2.63791,-3.93994 -0.5,7.93994 -0.5,7.93995 h -8.5 -8.5 l -0.5,-21.54809 c -0.55069,-23.732665 -0.9772,-25.457185 -6.90313,-27.911785 -3.60323,-1.49251 -6.75821,-0.88096 -10.45437,2.02644 -5.51861,4.34094 -6.10028,6.78704 -6.6425,27.933435 l -0.5,19.5 h -8 -8 l -0.29772,-6.25 c -0.16374,-3.4375 -0.49197,-6.25 -0.7294,-6.25 -0.23743,0 -2.32757,2.05679 -4.64477,4.57065 -2.31719,2.51385 -6.26395,5.77284 -8.77059,7.24218 -4.05482,2.37687 -5.71569,2.69719 -15.05752,2.90405 -5.8697,0.12998 -11.82294,-0.25818 -13.5,-0.88021 z m 17.90709,-16.2334 c 1.83856,-0.7682 4.63661,-3.01819 6.21788,-4.99997 3.51094,-4.40022 6.40596,-4.63479 13.40827,-1.08645 l 4.96676,2.51684 v -4.01684 -4.01685 h -22.5 c -25.19429,0 -25.10103,-0.032 -19.26859,6.61078 5.29093,6.02604 10.841,7.63929 17.17568,4.99249 z m 118.64976,0.39748 c 6.93415,-1.92631 12.69795,-11.33662 11.66422,-19.043675 -0.82141,-6.12407 -4.94603,-12.268 -10.05565,-14.97865 -4.11052,-2.18062 -4.7788,-2.26104 -8.79366,-1.05816 -15.17797,4.54743 -16.84785,27.644985 -2.47069,34.174305 4.79765,2.17883 5.00469,2.19826 9.65578,0.90618 z M 209.9406,86.801025 c 0,-1.76077 -6.09655,-6.01638 -9.5461,-6.66352 -4.27707,-0.80238 -8.28747,0.74771 -12.02351,4.64729 l -2.80457,2.92734 h 12.18709 c 6.7029,0 12.18709,-0.41 12.18709,-0.91111 z"
       id="path1697"
       sodipodi:nodetypes="ssssscccccccccccccccccccssssscssscccssscsssscsssssscsssssscssssscccssscccccccccccccccccccccssscsscccssscccccccccccssssscccssssscssssscsscsssscccssssscccccsssscccsssssssssscccsssssssssssscss" />
    <path
       style="fill:#bdbdbd"
       d="m 569.24999,180.25487 -21.25,-0.26989 v -11.98011 -11.98011 h 75.5 75.5 V 91.524763 27.02476 h 21.5 21.5 V 103.51238 180 l -75.75,0.26238 c -41.6625,0.14431 -85.3125,0.14093 -97,-0.008 z"
       id="path1693" />
    <path
       style="fill:#909090"
       d="m 589.45882,193.5 0.0412,-14 76,-0.01 76,-0.01 -75.72258,0.26583 -75.72258,0.26584 -0.3186,13.74372 -0.31859,13.74372 0.0412,-14 z"
       id="path1691" />
    <path
       style="fill:#6e6e6e"
       d="m 686.24378,208.25257 96.7438,-0.26252 0.26564,-76.74502 0.26564,-76.745027 -0.009,76.999997 -0.009,77 -97,0.008 -97,0.008 96.74379,-0.26251 z"
       id="path1689" />
    <path
       style="fill:#3b3b3b"
       d="m 589.99999,194 v -14 h 76 76 V 117.5 55.000003 h 20.5 20.5 V 131.5 208 h -96.5 -96.5 z"
       id="path1685" />
    <path
       d="M 505.48806,155.62671 504.49963,-1.48495 h 194.99996 l -0.4996,157.50971 z"
       style="fill:#fdfdfd"
       id="path3029"
       sodipodi:nodetypes="ccccc" />
  </g>
</svg>
